# xmcd
#
# Track frame offsets:
#  150
#  18292
#  36342
#  51920
#  68647
#  86467
#  104190
#  122860
#  145102
#  164400
#  181055
#  201032
#  215410
#
# Disc length: 3106 seconds
#
# Revision: 3
# Processed by: cddbd v1.5.1PL2 Copyright (c) Steve Scherf et al.
# Submitted via: Collectorz.com_Music_Collector 6.11
#
DISCID=b80c200d
DTITLE=Various Artist - GRP Christmas Collection
DYEAR=1995
DGENRE=Christmas - Fusion
TTITLE0=Diane Schuur - This Christmas Song (Chestnut Roasting On An Open Fire)
TTITLE1=Nelson Rangell - Let It Snow! Let It Snow! Let It Snow!
TTITLE2=Patti Austin - Christmas Time Is Here
TTITLE3=David Benoit - Carol of the Bells
TTITLE4=B.B. King - Merry Christmas Baby
TTITLE5=Tom Scott - Have Yourself A Merry Little Christmas
TTITLE6=Carl Anderson - O Holy Night
TTITLE7=George Howard - The First Noel
TTITLE8=Diane Schuur - I'll Be Home For Christmas
TTITLE9=Eddie Daniels - Sleigh Ride
TTITLE10=Ramsey Lewis - Hark The Herald Angels Sing
TTITLE11=Lee Ritenour - White Christmas
TTITLE12=Arturo Sandoval - O Come All Ye Faithful
EXTD=
EXTT0=
EXTT1=
EXTT2=
EXTT3=
EXTT4=
EXTT5=
EXTT6=
EXTT7=
EXTT8=
EXTT9=
EXTT10=
EXTT11=
EXTT12=
PLAYORDER=
